<svg width="20" height="20" viewBox="0 0 20 20" fill="none" xmlns="http://www.w3.org/2000/svg">
<path fill-rule="evenodd" clip-rule="evenodd" d="M3.78366 1.66666H6.60033C7.77533 1.66666 8.71699 2.625 8.71699 3.80083V6.64166C8.71699 7.825 7.77533 8.775 6.60033 8.775H3.78366C2.61699 8.775 1.66699 7.825 1.66699 6.64166V3.80083C1.66699 2.625 2.61699 1.66666 3.78366 1.66666ZM3.78366 11.2247H6.60033C7.77533 11.2247 8.71699 12.1756 8.71699 13.3589V16.1997C8.71699 17.3747 7.77533 18.3331 6.60033 18.3331H3.78366C2.61699 18.3331 1.66699 17.3747 1.66699 16.1997V13.3589C1.66699 12.1756 2.61699 11.2247 3.78366 11.2247ZM16.2171 1.66666H13.4005C12.2254 1.66666 11.2838 2.625 11.2838 3.80083V6.64166C11.2838 7.825 12.2254 8.775 13.4005 8.775H16.2171C17.3838 8.775 18.3338 7.825 18.3338 6.64166V3.80083C18.3338 2.625 17.3838 1.66666 16.2171 1.66666ZM13.4005 11.2247H16.2171C17.3838 11.2247 18.3338 12.1756 18.3338 13.3589V16.1997C18.3338 17.3747 17.3838 18.3331 16.2171 18.3331H13.4005C12.2254 18.3331 11.2838 17.3747 11.2838 16.1997V13.3589C11.2838 12.1756 12.2254 11.2247 13.4005 11.2247Z" fill="white"/>
</svg>
