<svg width="24" height="24" viewBox="0 0 24 24" fill="none" xmlns="http://www.w3.org/2000/svg">
<path d="M7.9412 18C7.6442 16.727 6.3042 15.686 5.7542 15C4.81239 13.8233 4.22215 12.4045 4.05147 10.907C3.88078 9.40947 4.1366 7.89421 4.78946 6.53575C5.44231 5.17728 6.46564 4.03088 7.74156 3.22859C9.01748 2.4263 10.4941 2.00077 12.0013 2.00101C13.5085 2.00125 14.985 2.42725 16.2606 3.22995C17.5363 4.03265 18.5592 5.17939 19.2117 6.53806C19.8641 7.89673 20.1194 9.41207 19.9482 10.9095C19.7771 12.407 19.1864 13.8256 18.2442 15.002C17.6942 15.687 16.3562 16.728 16.0592 18H7.9402H7.9412ZM16.0002 20V21C16.0002 21.5304 15.7895 22.0391 15.4144 22.4142C15.0393 22.7893 14.5306 23 14.0002 23H10.0002C9.46977 23 8.96106 22.7893 8.58599 22.4142C8.21092 22.0391 8.0002 21.5304 8.0002 21V20H16.0002ZM13.0002 10.005V6L8.5002 12.005H11.0002V16.005L15.5002 10.005H13.0002Z" fill="black"/>
</svg>
