<svg width="20" height="20" viewBox="0 0 20 20" fill="none" xmlns="http://www.w3.org/2000/svg">
<path fill-rule="evenodd" clip-rule="evenodd" d="M15.5896 7.33027C15.5896 8.37688 15.8662 8.99377 16.4749 9.70466C16.9362 10.2284 17.0837 10.9007 17.0837 11.63C17.0837 12.3585 16.8443 13.0501 16.3648 13.6116C15.737 14.2847 14.8516 14.7144 13.948 14.7891C12.6386 14.9008 11.3284 14.9948 10.0007 14.9948C8.67228 14.9948 7.36287 14.9385 6.05345 14.7891C5.14904 14.7144 4.26367 14.2847 3.63671 13.6116C3.15718 13.0501 2.91699 12.3585 2.91699 11.63C2.91699 10.9007 3.06524 10.2284 3.52573 9.70466C4.15352 8.99377 4.41193 8.37688 4.41193 7.33027V6.97525C4.41193 5.57361 4.76143 4.6571 5.48116 3.75988C6.55121 2.45141 8.26645 1.66666 9.96347 1.66666H10.038C11.7715 1.66666 13.5422 2.48918 14.594 3.85388C15.2765 4.73263 15.5896 5.61054 15.5896 6.97525V7.33027ZM7.56171 16.7174C7.56171 16.2977 7.94683 16.1055 8.30297 16.0233C8.71956 15.9351 11.258 15.9351 11.6746 16.0233C12.0308 16.1055 12.4159 16.2977 12.4159 16.7174C12.3952 17.1169 12.1608 17.4711 11.837 17.696C11.4171 18.0233 10.9243 18.2306 10.4091 18.3053C10.1242 18.3422 9.84428 18.3431 9.56931 18.3053C9.05333 18.2306 8.56054 18.0233 8.14146 17.6951C7.8168 17.4711 7.58242 17.1169 7.56171 16.7174Z" fill="white"/>
</svg>
