<svg width="24" height="24" viewBox="0 0 24 24" fill="none" xmlns="http://www.w3.org/2000/svg">
<path d="M14.3679 4.39799L10.8839 10.433L12.6159 11.433L16.0999 5.39799C20.2699 8.16999 22.4059 12.478 20.6599 15.5C18.7999 18.722 13.4709 18.855 8.7499 16.13C4.0289 13.402 1.4799 8.72099 3.3399 5.49999C5.0849 2.47699 9.8829 2.17299 14.3679 4.39799ZM15.8839 1.77299L17.6159 2.77299L16.1159 5.37099L14.3839 4.37099L15.8839 1.77299ZM6.7319 20H16.9999V22H5.0169C4.8384 22.0035 4.66223 21.959 4.50687 21.871C4.35151 21.783 4.22269 21.6549 4.1339 21.5C4.04662 21.3478 4.0007 21.1754 4.0007 21C4.0007 20.8246 4.04662 20.6522 4.1339 20.5L6.3839 16.603L8.1159 17.603L6.7319 20Z" fill="black"/>
</svg>
